<?xml version="1.0" encoding="UTF-8"?> <svg xmlns="http://www.w3.org/2000/svg" width="77" height="89" viewBox="0 0 77 89"><g fill="none" fill-rule="nonzero"><path fill="#89E897" d="M47.406 58.513l-14.382-.549L36.44 17.93h7.254z"></path><path fill="#21D855" d="M33.614 50.835h13.117l-.506-5.147H34.078z"></path><g fill="#21D855"><path d="M44.791 29.742l-1.097-11.813H36.44l-1.012 11.813zM34.964 35.015l-.464 5.4h11.261l-.506-5.4z"></path></g><path fill="#89E897" d="M28.595 58.513l-14.382-.549L17.63 17.93h7.254z"></path><path fill="#21D855" d="M14.804 50.835H27.92l-.464-5.147h-12.19z"></path><g fill="#21D855"><path d="M25.98 29.742l-1.096-11.813H17.63l-1.013 11.813zM16.196 35.015l-.464 5.4H26.95l-.507-5.4z"></path></g><path fill="#89E897" d="M8.52 55.982h68.41v32.906H8.52z"></path><g fill="#89E897"><path d="M58.71 11.348h-9.237a1.647 1.647 0 0 1-1.645-1.645c0-.886.717-1.645 1.645-1.645h5.018c2.194 0 4.007-1.814 4.007-4.008S56.685.042 54.491.042H16.744c-2.193 0-4.007 1.814-4.007 4.008s1.814 4.008 4.007 4.008h17.039c.886 0 1.645.717 1.645 1.645 0 .886-.717 1.645-1.645 1.645H6.579c-2.193 0-4.006 1.814-4.006 4.008s1.813 4.008 4.006 4.008h52.088c2.193 0 4.007-1.814 4.007-4.008s-1.772-4.008-3.965-4.008z"></path><path d="M8.013 7.636H4.007C1.94 7.636.21 5.948.21 3.839.21 1.772 1.898.042 4.007.042h4.006c2.067 0 3.796 1.688 3.796 3.797 0 2.11-1.729 3.797-3.796 3.797z"></path></g><g fill="#FFF"><path d="M14.804 62.647h7.97v5.99h-7.97zM30.747 62.647h7.97v5.99h-7.97zM45.972 62.647h7.97v5.99h-7.97zM62.084 62.647h7.97v5.99h-7.97z"></path></g><g fill="#FFF"><path d="M14.804 75.936h7.97v5.99h-7.97zM30.747 75.936h7.97v5.99h-7.97zM45.972 75.936h7.97v5.99h-7.97zM62.084 75.936h7.97v5.99h-7.97z"></path></g></g></svg> 