<?xml version="1.0" encoding="UTF-8"?> <svg xmlns="http://www.w3.org/2000/svg" width="62" height="78" viewBox="0 0 62 78"><g fill="none" fill-rule="evenodd"><path fill="#FCB315" fill-rule="nonzero" d="M6 0h56v72H6z"></path><path fill="#FFF" fill-rule="nonzero" d="M38.446 22.591V5H0v73h56V22.591z"></path><path fill="#FFB401" fill-rule="nonzero" d="M38.446 22.591V5H0v73h56V22.591z" opacity=".4"></path><path fill="#FFF" fill-rule="nonzero" d="M17.588 24h-1.797c-.25 0-.4.163-.5.38l-3.446 8.99-.45-1.137c-.449-1.137-1.447-1.841-2.546-1.841H8l2.597 6.283c.1.27.25.325.5.325h1.348c.25 0 .4-.108.499-.325l5.044-12.08c.05-.324-.05-.595-.4-.595zM17.588 45h-1.797c-.25 0-.4.163-.5.38l-3.446 8.99-.45-1.137c-.449-1.137-1.447-1.841-2.546-1.841H8l2.597 6.283c.1.27.25.325.5.325h1.348c.25 0 .4-.108.499-.325l5.044-12.08c.05-.324-.05-.595-.4-.595zM56 23L39 6v17z"></path><path fill="#FCB315" fill-rule="nonzero" d="M56 23L39 6v17z" opacity=".7"></path><g fill="#FFF" fill-rule="nonzero"><path d="M45.979 35.45h-22.11c-.46 0-.869-.4-.869-.85 0-.45.409-.85.868-.85h22.11c.46 0 .869.4.869.85 0 .5-.409.85-.868.85zM45.979 38.85h-22.11c-.46 0-.869-.4-.869-.85 0-.45.409-.85.868-.85h22.11c.46 0 .869.4.869.85 0 .5-.409.85-.868.85zM45.979 32.05H31.732c-.46 0-.868-.4-.868-.85 0-.45.408-.85.868-.85h14.247c.46 0 .868.4.868.85 0 .5-.409.85-.868.85z"></path></g><path stroke="#FFF" stroke-width="2" d="M7 30h8v8H7z"></path><path fill="#FCB315" fill-rule="nonzero" d="M17.588 24h-1.797c-.25 0-.4.163-.5.38l-3.446 8.99-.45-1.137c-.449-1.137-1.447-1.841-2.546-1.841H8l2.597 6.283c.1.27.25.325.5.325h1.348c.25 0 .4-.108.499-.325l5.044-12.08c.05-.324-.05-.595-.4-.595z" opacity=".7"></path><path fill="#FFF" fill-rule="nonzero" d="M46.126 56H23.874c-.463 0-.874-.47-.874-1s.411-1 .874-1h22.252c.463 0 .874.47.874 1 0 .588-.411 1-.874 1zM46.126 60H23.874c-.463 0-.874-.47-.874-1s.411-1 .874-1h22.252c.463 0 .874.47.874 1 0 .588-.411 1-.874 1zM38.131 53H23.869c-.46 0-.869-.47-.869-1s.409-1 .869-1h14.262c.46 0 .869.47.869 1 0 .588-.409 1-.869 1z"></path><path stroke="#FFF" stroke-width="2" d="M7 52h8v8H7z"></path><path fill="#FCB315" fill-rule="nonzero" d="M17.588 45h-1.797c-.25 0-.4.163-.5.38l-3.446 8.99-.45-1.137c-.449-1.137-1.447-1.841-2.546-1.841H8l2.597 6.283c.1.27.25.325.5.325h1.348c.25 0 .4-.108.499-.325l5.044-12.08c.05-.324-.05-.595-.4-.595z" opacity=".7"></path></g></svg> 