<?xml version="1.0" encoding="UTF-8"?> <svg xmlns="http://www.w3.org/2000/svg" width="92" height="88" viewBox="0 0 92 88"><g fill="none" fill-rule="nonzero" transform="translate(-1)"><path fill="#FFB401" d="M1.472 85.067h91.116V88H1.472z"></path><path fill="#FED267" d="M23.132.176h46.971v85.067H23.132zM3.591 77.616h1v7.685h-1z"></path><ellipse cx="3.859" cy="76.818" fill="#FFB401" rx="2.647" ry="2.641" transform="rotate(-22.377 3.859 76.818)"></ellipse><path fill="#FED267" d="M8.829 77.616h1v7.685h-1z"></path><ellipse cx="9.098" cy="76.818" fill="#FFB401" rx="2.647" ry="2.641" transform="rotate(-22.377 9.098 76.818)"></ellipse><path fill="#FED267" d="M14.068 77.616h1v7.685h-1z"></path><ellipse cx="14.877" cy="76.672" fill="#FFB401" rx="2.641" ry="2.648" transform="rotate(-76.668 14.877 76.672)"></ellipse><path fill="#FED267" d="M19.718 77.499h1v7.685h-1z"></path><ellipse cx="19.994" cy="76.715" fill="#FFB401" rx="2.647" ry="2.641" transform="rotate(-22.377 19.994 76.715)"></ellipse><path fill="#FED267" d="M72.987 77.44h1v7.685h-1z"></path><circle cx="73.306" cy="76.599" r="2.644" fill="#FFB401" transform="rotate(-45 73.306 76.6)"></circle><path fill="#FED267" d="M78.285 77.44h1v7.685h-1z"></path><ellipse cx="78.558" cy="76.638" fill="#FFB401" rx="2.647" ry="2.641" transform="rotate(-22.377 78.558 76.638)"></ellipse><path fill="#FED267" d="M83.523 77.44h1v7.685h-1z"></path><ellipse cx="83.798" cy="76.665" fill="#FFB401" rx="2.644" ry="2.645" transform="rotate(-49.969 83.798 76.665)"></ellipse><path fill="#FED267" d="M88.762 77.44h1v7.685h-1z"></path><ellipse cx="89.102" cy="76.627" fill="#FFB401" rx="2.648" ry="2.641" transform="rotate(-22.5 89.102 76.627)"></ellipse><path fill="#FFB401" d="M23.132 65.12h46.971v1.056H23.132zM23.132 44.704h46.971v1.056H23.132zM23.132 24.171h46.971v1.056H23.132zM23.132 2.699h46.971v2.288H23.132z"></path><path fill="#FFF" d="M24.663 7.216h5.18v5.749h-5.18zM30.254 7.216h5.18v5.749h-5.18zM35.846 7.216h5.18v5.749h-5.18zM41.438 7.216h5.18v5.749h-5.18zM47.03 7.216h5.18v5.749h-5.18zM52.622 7.216h5.18v5.749h-5.18zM58.213 7.216h5.18v5.749h-5.18zM63.805 7.216h5.18v5.749h-5.18zM24.663 15.605h5.18v5.749h-5.18zM30.254 15.605h5.18v5.749h-5.18zM35.846 15.605h5.18v5.749h-5.18zM41.438 15.605h5.18v5.749h-5.18zM47.03 15.605h5.18v5.749h-5.18zM52.622 15.605h5.18v5.749h-5.18zM58.213 15.605h5.18v5.749h-5.18zM63.805 15.605h5.18v5.749h-5.18z"></path><g fill="#FFF"><path d="M24.663 27.866h5.18v5.75h-5.18zM30.255 27.866h5.18v5.75h-5.18zM35.846 27.866h5.18v5.75h-5.18zM41.438 27.866h5.18v5.75h-5.18zM47.03 27.866h5.18v5.75h-5.18zM52.622 27.866h5.18v5.75h-5.18zM58.213 27.866h5.18v5.75h-5.18zM63.805 27.866h5.18v5.75h-5.18z"></path></g><g fill="#FFF"><path d="M24.663 36.198h5.18v5.749h-5.18zM30.255 36.198h5.18v5.749h-5.18zM35.846 36.198h5.18v5.749h-5.18zM41.438 36.198h5.18v5.749h-5.18zM47.03 36.198h5.18v5.749h-5.18zM52.622 36.198h5.18v5.749h-5.18zM58.213 36.198h5.18v5.749h-5.18zM63.805 36.198h5.18v5.749h-5.18z"></path></g><g fill="#FFF"><path d="M24.663 48.107h5.18v5.749h-5.18zM30.255 48.107h5.18v5.749h-5.18zM35.846 48.107h5.18v5.749h-5.18zM41.438 48.107h5.18v5.749h-5.18zM47.03 48.107h5.18v5.749h-5.18zM52.622 48.107h5.18v5.749h-5.18zM58.213 48.107h5.18v5.749h-5.18zM63.805 48.107h5.18v5.749h-5.18z"></path></g><g fill="#FFF"><path d="M24.663 56.496h5.18v5.749h-5.18zM30.255 56.496h5.18v5.749h-5.18zM35.846 56.496h5.18v5.749h-5.18zM41.438 56.496h5.18v5.749h-5.18zM47.03 56.496h5.18v5.749h-5.18zM52.622 56.496h5.18v5.749h-5.18zM58.213 56.496h5.18v5.749h-5.18zM63.805 56.496h5.18v5.749h-5.18z"></path></g><path fill="#FFB401" d="M36.023 66.117h21.19v2.464h-21.19z"></path><path fill="#FED267" d="M38.436 68.581h16.775v16.603H38.436z"></path><path fill="#FFB401" d="M37.318 68.581h1.118v16.603h-1.118zM39.908 68.581h1.118v16.603h-1.118zM52.622 68.581h1.118v16.603h-1.118zM55.211 68.581h1.118v16.603h-1.118z"></path><path fill="#F7BD57" d="M26.193 68.581h7.946v16.544h-7.946zM59.037 68.581h7.946v16.544h-7.946z"></path><path fill="#F9C553" d="M23.132 84.011h14.244v1.173H23.132zM56.271 84.011h13.891v1.173H56.271z"></path><path fill="#FFB401" d="M42.439 69.931h4.238v15.253h-4.238zM46.971 69.931h4.238v15.253h-4.238z"></path></g></svg> 