<?xml version="1.0" encoding="UTF-8"?> <svg xmlns="http://www.w3.org/2000/svg" width="100" height="100" viewBox="0 0 100 100"><defs><linearGradient id="a" x1="35.05%" x2="56.875%" y1="6.478%" y2="89.017%"><stop offset="0%" stop-color="#E4F2FA"></stop><stop offset="100%" stop-color="#D8EDF8"></stop></linearGradient><linearGradient id="b" x1="-.04%" x2="99.96%" y1="50.26%" y2="50.26%"><stop offset="0%" stop-color="#ACCCDD"></stop><stop offset="100%" stop-color="#9DC3D7"></stop></linearGradient><linearGradient id="c" x1="-.097%" x2="99.903%" y1="50.087%" y2="50.087%"><stop offset="0%" stop-color="#F1F8FC"></stop><stop offset="100%" stop-color="#EAF5FB"></stop></linearGradient><linearGradient id="d" x1="36.911%" x2="99.833%" y1="50.042%" y2="50.042%"><stop offset="0%" stop-color="#E4F2FA"></stop><stop offset="100%" stop-color="#D8EDF8"></stop></linearGradient></defs><g fill="none" fill-rule="nonzero"><path fill="url(#a)" d="M99.588 98.35V27.217L74.845 2.474H7.835v95.877z"></path><path fill="url(#b)" d="M20.206 11.753H80V20H20.206z"></path><path fill="#7EC4E8" d="M20.206 63.299h69.072v3.093H20.206z"></path><path fill="#69CAFD" d="M62.474 29.278h26.804v3.093H62.474zM62.474 36.495h26.804v3.093H62.474zM62.474 43.711h26.804v3.093H62.474zM62.474 50.928h12.371v3.093H62.474zM62.474 74.639h26.804v3.093H62.474zM62.474 81.856h12.371v3.093H62.474z"></path><path fill="url(#c)" d="M74.845 2.474l24.743 24.742H74.845z"></path><path fill="#70BDE5" d="M74.845 27.216L99.588 41.65V27.216z" opacity=".6"></path><path fill="#84B8F7" d="M38.763 26.186v14.536h14.536c-.103-8.042-6.598-14.536-14.536-14.536z"></path><path fill="#4E93F9" d="M36.701 43.814V28.247c-8.041 0-14.433 6.392-14.433 14.33s6.495 14.536 14.536 14.536c3.608 0 6.907-1.34 9.485-3.505L36.7 43.814z"></path><path fill="#FFF" d="M38.763 42.784L48.969 52.99c2.577-2.578 4.227-6.289 4.227-10.206H38.763z"></path><path fill="#69CAFD" d="M21.237 82.887h4.124v3.093h-4.124zM27.423 80.825h4.124v5.155h-4.124zM33.608 78.763h4.124v7.216h-4.124zM39.794 75.67h4.124v10.309h-4.124zM45.979 72.577h4.124v13.402h-4.124zM7.835 97.32h91.753v2.062H7.835z"></path><path fill="url(#d)" d="M10.928 3.505c0-1.65-1.34-3.093-3.093-3.093H3.711C1.96.412.62 1.752.62 3.402v90.825c0 1.65 1.34 2.99 3.092 2.99h4.124c1.753 0 3.093-1.34 3.093-2.99V3.505z"></path><path fill="#CCE7F6" d="M7.835 97.32c1.753 0 3.093-1.34 3.093-2.99V3.505c0-1.65-1.34-2.99-3.093-2.99V97.32z"></path><path fill="#69CAFD" d="M7.835 94.227h91.753v2.062H7.835z"></path><path fill="#CCE7F6" d="M3.711 98.35A2.068 2.068 0 0 1 1.65 96.29v-1.031c0-1.134.928-2.062 2.062-2.062h4.124c1.134 0 2.062.928 2.062 2.062v1.03a2.068 2.068 0 0 1-2.062 2.063H3.711z"></path><path fill="#69CAFD" d="M7.835 94.227c.516 0 1.031.515 1.031 1.03v1.032c0 .515-.515 1.03-1.03 1.03H3.71c-.515 0-1.03-.515-1.03-1.03v-1.031c0-.516.515-1.031 1.03-1.031h4.124zm0-2.062H3.711c-1.752 0-3.092 1.34-3.092 3.093v1.03c0 1.753 1.34 3.093 3.092 3.093h4.124c1.753 0 3.093-1.34 3.093-3.092v-1.031c0-1.65-1.443-3.093-3.093-3.093z"></path><path fill="#CCE7F6" d="M7.835 96.289h91.753v1.031H7.835z"></path></g></svg> 