<?xml version="1.0" encoding="UTF-8"?> <svg xmlns="http://www.w3.org/2000/svg" width="118" height="127" viewBox="0 0 118 127"><g fill="none" fill-rule="nonzero"><path fill="#FFCC4F" d="M94.4 84.32v-9.681l-7.1-2.395c-.21-1.04-.419-2.186-.732-3.227l-.94-3.123 4.908-5.621-4.908-8.432-7.414 1.457c-.73-.832-1.462-1.665-2.297-2.394-.731-.729-1.567-1.561-2.402-2.29l1.462-7.391-8.458-4.893-5.64 4.893c-1.044-.312-2.088-.729-3.132-.937-1.044-.312-2.089-.52-3.237-.729l-2.402-7.078h-9.712l-2.401 7.078c-1.045.209-2.193.417-3.237.73-1.045.311-2.089.624-3.133.936l-5.64-4.893-8.458 4.893 1.462 7.39c-.835.73-1.67 1.458-2.401 2.291-.731.833-1.567 1.562-2.298 2.394l-7.414-1.457-4.908 8.432 4.908 5.621c-.73 2.082-1.253 4.164-1.67 6.35L.103 74.64v9.68l7.101 2.395c.418 2.186.94 4.268 1.671 6.35l-4.908 5.621 4.908 8.432 7.414-1.457c.731.833 1.462 1.665 2.298 2.394.73.729 1.566 1.562 2.401 2.29l-1.462 7.391 8.459 4.893 5.639-4.997c1.044.417 2.088.729 3.133.937 1.044.312 2.088.52 3.237.729l2.401 7.078h9.712l2.402-7.078c2.193-.417 4.281-.937 6.37-1.666l5.639 4.997 8.458-4.893-1.462-7.39c.835-.73 1.67-1.458 2.402-2.29.73-.73 1.566-1.562 2.297-2.395l7.414 1.457 4.908-8.432-4.908-5.621c.731-1.978 1.253-4.164 1.671-6.35L94.4 84.32zm-46.991 30.396c-19.528 0-35.4-15.823-35.4-35.289s15.872-35.29 35.4-35.29c19.527 0 35.4 15.824 35.4 35.29 0 19.57-15.873 35.29-35.4 35.29z"></path><path fill="#FFB503" d="M47.409 41.64c-20.99 0-38.01 16.967-38.01 37.891s17.02 37.892 38.01 37.892 38.01-16.968 38.01-37.892c0-20.924-17.02-37.892-38.01-37.892z"></path><path fill="#FFF6E1" d="M47.409 44.242c-19.528 0-35.296 15.823-35.296 35.185 0 19.466 15.873 35.29 35.296 35.29 19.527 0 35.4-15.824 35.4-35.29 0-19.362-15.873-35.185-35.4-35.185z"></path><g fill="#CEA84B"><path d="M48.244 52.05c0 .52-.417.832-.835.832a.822.822 0 0 1-.836-.833v-4.06c0-.52.418-.832.836-.832.522 0 .835.416.835.832v4.06zM19.945 78.594c.522 0 .836.417.836.833 0 .52-.418.833-.836.833h-4.072a.822.822 0 0 1-.836-.833c0-.52.418-.833.836-.833h4.072zM46.573 106.909c0-.52.418-.833.836-.833.522 0 .835.417.835.833v4.06c0 .52-.417.833-.835.833a.822.822 0 0 1-.836-.833v-4.06zM74.977 80.364a.822.822 0 0 1-.835-.833c0-.52.417-.833.835-.833h4.073c.522 0 .835.417.835.833 0 .52-.418.833-.835.833h-4.073z"></path></g><g fill="#FFCC4F"><path d="M42.814 48.302c.105.52-.209.937-.73 1.04-.523.105-.94-.208-1.045-.728-.104-.52.209-.937.73-1.041.523 0 .94.312 1.045.729zM37.384 49.655c.209.416-.104.937-.522 1.145-.418.208-.94-.104-1.149-.52-.209-.417.105-.937.522-1.146.523-.208 1.045 0 1.15.52zM32.372 51.737c.209.416.104.937-.314 1.145-.417.208-.94.104-1.148-.312-.21-.417-.105-.937.313-1.145.418-.209.94 0 1.149.312zM27.777 54.86c.313.416.313.937-.104 1.249-.418.312-.94.208-1.254-.104-.313-.416-.313-.937.105-1.25.418-.312.94-.312 1.253.105zM23.809 58.607c.418.313.418.833.104 1.25-.313.416-.835.416-1.253.104-.418-.313-.418-.833-.104-1.25.313-.416.835-.416 1.253-.104zM20.467 62.98c.418.208.522.728.314 1.145-.21.416-.731.52-1.15.312-.417-.208-.521-.729-.312-1.145.208-.417.73-.52 1.148-.312zM18.065 67.872c.418.208.731.625.523 1.145-.21.417-.627.729-1.15.52-.417-.207-.73-.624-.521-1.144.104-.417.626-.625 1.148-.52zM16.5 73.181c.521.104.835.52.73 1.041-.104.52-.522.833-1.044.729-.522-.104-.836-.52-.731-1.041.104-.52.522-.833 1.044-.729zM16.186 84.111c.522-.104.94.209 1.044.73.105.52-.209.936-.73 1.04-.523.104-.94-.208-1.045-.729-.105-.52.209-.936.73-1.04zM17.439 89.42c.418-.208.94.105 1.149.521.208.416-.105.937-.523 1.145-.417.208-.94-.104-1.148-.52-.209-.417.104-.937.522-1.146zM19.632 94.521c.418-.208.94-.104 1.149.313.208.416.104.936-.314 1.145-.417.208-.94.104-1.148-.313-.314-.416-.105-.936.313-1.145zM22.66 99.102c.418-.313.94-.313 1.253.104.314.416.21.937-.104 1.249-.418.312-.94.312-1.253-.104-.314-.417-.314-.937.104-1.25zM26.42 103.057c.313-.416.835-.416 1.253-.104.417.313.417.833.104 1.25-.313.416-.835.416-1.253.104-.313-.313-.418-.833-.105-1.25zM30.91 106.389c.209-.417.73-.521 1.148-.313.418.208.523.729.314 1.145-.21.417-.731.52-1.149.313-.418-.209-.627-.73-.313-1.145zM35.818 108.783c.209-.417.626-.729 1.148-.52.418.207.731.624.522 1.144-.208.417-.626.73-1.148.52-.522-.207-.731-.624-.522-1.144zM41.039 110.344c.104-.52.522-.833 1.044-.728.522.104.836.52.731 1.04-.104.521-.522.833-1.044.73-.418-.105-.731-.521-.731-1.042zM52.004 110.657c-.105-.52.208-.937.73-1.041.523-.105.94.208 1.045.728.104.52-.21.937-.731 1.041-.418.104-.94-.208-1.044-.728zM57.434 109.407c-.21-.416.104-.937.522-1.145.417-.208.94.104 1.148.52.21.417-.104.938-.522 1.146-.522.208-1.044-.104-1.148-.52zM62.446 107.221c-.209-.416-.104-.937.313-1.145.418-.208.94-.104 1.149.313.209.416.104.936-.313 1.145-.314.208-.836.104-1.149-.313zM67.04 104.202c-.313-.416-.313-.936.105-1.249.418-.312.94-.208 1.253.104.314.417.314.937-.104 1.25-.418.312-.94.208-1.253-.105zM71.113 100.455c-.417-.312-.417-.833-.104-1.25.313-.416.835-.416 1.253-.103.418.312.418.832.104 1.249-.417.312-.94.416-1.253.104zM74.35 95.979c-.417-.209-.522-.729-.313-1.145.209-.417.731-.52 1.149-.313.418.209.522.729.313 1.145-.209.417-.73.625-1.149.313zM76.857 91.086c-.418-.208-.731-.625-.522-1.145.208-.416.626-.729 1.148-.52.418.208.731.624.522 1.145-.209.416-.73.728-1.148.52zM78.423 85.881c-.522-.104-.835-.52-.731-1.04.104-.521.522-.834 1.044-.73.522.105.836.521.731 1.041-.104.417-.626.73-1.044.73zM78.736 74.847c-.522.104-.94-.208-1.044-.729-.104-.52.209-.937.731-1.041.522-.104.94.208 1.044.729 0 .52-.313 1.04-.73 1.04zM77.379 69.538c-.418.208-.94-.104-1.149-.52-.209-.417.105-.938.522-1.146.418-.208.94.104 1.149.52.209.521 0 1.042-.522 1.146zM75.186 64.541c-.418.208-.94.104-1.149-.312-.209-.417-.104-.937.313-1.145.418-.209.94-.104 1.15.312.312.312.104.833-.314 1.145zM72.158 59.96c-.418.313-.94.313-1.254-.103-.313-.417-.313-.937.105-1.25.418-.312.94-.208 1.253.104.313.313.313.937-.104 1.25zM68.398 55.9c-.313.417-.835.417-1.253.105-.418-.312-.418-.833-.104-1.25.313-.312.835-.416 1.253-.103.418.416.418.937.104 1.249zM64.012 52.674c-.208.416-.73.52-1.148.312-.418-.208-.522-.729-.314-1.145.21-.416.731-.52 1.15-.312.417.208.521.728.312 1.145zM59 50.175c-.209.417-.627.73-1.149.52-.417-.207-.73-.624-.522-1.144.21-.417.627-.729 1.149-.52.522.208.73.728.522 1.144zM53.779 48.614c-.105.52-.522.833-1.044.729-.523-.104-.836-.52-.731-1.041.104-.52.522-.833 1.044-.729.522.104.835.625.73 1.04z"></path></g><path fill="#FFB503" d="M64.326 68.497c-.105-.208-.418-.417-.627-.417-.313-.104-.522 0-.835.104l-16.082 10.41c-.522.313-.626 1.041-.313 1.562.313.52 1.044.624 1.566.312l16.082-10.41c.209-.104.418-.416.418-.624.104-.313 0-.52-.105-.833l-.104-.104z"></path><path fill="#FFB503" d="M47.931 78.49l-10.338-5.83c-.209-.103-.522-.208-.835-.103a1.069 1.069 0 0 0-.627.52l-.104.104c-.105.208-.21.52-.105.833.105.312.313.52.522.625l10.338 5.829c.522.312 1.253.104 1.567-.416.313-.52.209-1.25-.418-1.562z"></path><path fill="#CEA84B" d="M41.248 104.307h.313c.104-.105.209-.209.209-.313l7.1-28.627-.835-.208-7.1 28.627v.312c.104.104.208.209.313.209z"></path><path fill="#BF8C12" d="M49.602 79.531c0 1.25-.94 2.186-2.193 2.186-1.253 0-2.193-.937-2.193-2.186 0-1.145.94-2.186 2.193-2.186 1.253 0 2.193.937 2.193 2.186z"></path><path fill="#FFB503" d="M117.165 23.63v-4.372l-3.238-1.145c-.104-.52-.208-.937-.313-1.457-.104-.52-.313-.937-.418-1.458l2.193-2.602-2.193-3.748-3.341.625c-.313-.416-.627-.729-1.044-1.145-.314-.312-.731-.729-1.15-1.041l.627-3.331-3.759-2.186-2.61 2.186c-.418-.208-.94-.313-1.462-.417-.522-.104-.94-.208-1.462-.312L97.846 0H93.46l-1.148 3.227c-.523.104-.94.208-1.462.312-.523.104-.94.313-1.462.417L86.777 1.77l-3.76 2.186.627 3.33c-.417.313-.73.625-1.148 1.042-.314.312-.731.729-1.045 1.145l-3.341-.625-2.193 3.748 2.193 2.602c-.314.937-.627 1.874-.731 2.811l-3.237 1.145v4.372l3.237 1.145c.209.937.417 1.978.73 2.811l-2.192 2.602 2.193 3.748 3.341-.625c.314.417.627.73 1.045 1.145.313.313.73.73 1.148 1.041l-.626 3.332 3.759 2.186 2.61-2.186c.418.208.94.312 1.463.416.522.104.94.208 1.462.312l1.148 3.227h4.386l1.149-3.227c.94-.208 1.984-.416 2.82-.728l2.61 2.186 3.76-2.186-.627-3.332c.417-.312.73-.624 1.148-1.04.313-.313.731-.73 1.044-1.146l3.342.625 2.193-3.748-2.193-2.602c.313-.937.627-1.874.731-2.81l3.342-1.042zm-21.303 7.391c-.835 0-1.67-.104-2.506-.312-4.073-1.041-7.101-4.789-7.101-9.16 0-4.373 3.028-8.12 7.1-9.161a10.33 10.33 0 0 1 2.507-.313c.835 0 1.67.105 2.506.313 3.342.832 5.848 3.435 6.788 6.766.209.833.313 1.562.313 2.498 0 5.101-4.281 9.37-9.607 9.37z"></path></g></svg> 